Coordinates
version=1
nRows=4
nColumns=63
inDegrees=yes

Units are S.I. units (second, meters, Newtons, ...)
If the header above contains a line with 'inDegrees', this indicates whether rotational values are in degrees (yes) or radians (no).

endheader
time	pelvis_tilt	pelvis_list	pelvis_rotation	pelvis_tx	pelvis_ty	pelvis_tz	hip_flexion_r	hip_adduction_r	hip_rotation_r	knee_angle_r	knee_angle_r_beta	ankle_angle_r	subtalar_angle_r	mtp_angle_r	hip_flexion_l	hip_adduction_l	hip_rotation_l	knee_angle_l	knee_angle_l_beta	ankle_angle_l	subtalar_angle_l	mtp_angle_l	L5_S1_Flex_Ext	L5_S1_Lat_Bending	L5_S1_axial_rotation	L4_L5_Flex_Ext	L4_L5_Lat_Bending	L4_L5_axial_rotation	L3_L4_Flex_Ext	L3_L4_Lat_Bending	L3_L4_axial_rotation	L2_L3_Flex_Ext	L2_L3_Lat_Bending	L2_L3_axial_rotation	L1_L2_Flex_Ext	L1_L2_Lat_Bending	L1_L2_axial_rotation	L1_T12_Flex_Ext	L1_T12_Lat_Bending	L1_T12_axial_rotation	Abs_r3	Abs_r2	Abs_r1	Abs_t1	Abs_t2	neck_flexion	neck_bending	neck_rotation	arm_flex_r	arm_add_r	arm_rot_r	elbow_flex_r	pro_sup_r	wrist_flex_r	wrist_dev_r	arm_flex_l	arm_add_l	arm_rot_l	elbow_flex_l	pro_sup_l	wrist_flex_l	wrist_dev_l
      0.00000000	      1.21558800	     -4.81051438	    104.36564111	      0.18803629	      1.01361789	      0.38013210	     -5.27290760	      2.65810538	    -18.57035177	      1.92579687	      0.03361150	     18.73344842	     -2.56954924	      0.00000000	     -2.52505521	     -4.30526410	      7.24928224	      0.97151983	      0.01695622	     19.83085074	      7.39791154	      0.00000000	      0.06990974	      0.31275982	     -2.95296056	      0.12982937	      0.41597056	     -3.13752059	      0.11485471	      0.76044422	     -3.13752059	      0.07989984	      0.76044422	     -2.58384049	      0.06491818	      0.63777982	     -2.39928045	      0.03994642	      0.48446496	     -2.21472042	      0.49935826	      3.53800160	    -16.42348074	      0.00000000	      0.00000000	     18.61184628	      3.70825313	      2.98458672	     -1.97468700	    -26.50852461	     43.48125988	    102.79629515	     46.95444209	      2.49088817	     10.88179485	     -9.50103886	    -17.52535507	     28.61377778	    100.92979602	     81.43492902	     15.46175797	     14.52951650
      0.01785714	      1.38107119	     -4.75716888	    104.35468807	      0.18775487	      1.01354027	      0.37948557	     -5.24907781	      2.87345629	    -19.30875384	      1.86959306	      0.03263055	     18.50398353	     -2.35691542	      0.00000000	     -2.56183267	     -4.47963928	      8.56938735	      0.82969884	      0.01448098	     19.91560055	      6.58270591	      0.00000000	      0.06820861	      0.34266577	     -3.01892328	      0.12667022	      0.45574548	     -3.20760599	      0.11205993	      0.83315756	     -3.20760599	      0.07795562	      0.83315756	     -2.64155787	      0.06333852	      0.69876405	     -2.45287517	      0.03897440	      0.53078928	     -2.26419246	      0.48720731	      3.87630377	    -16.79034561	      0.00000000	      0.00000000	     18.79553514	      3.85796281	      3.80196274	     -1.35065380	    -26.01298066	     42.31031804	    103.27865159	     39.82952365	      2.96797140	     10.62372656	     -9.88461795	    -18.05631261	     28.77170917	    102.04995735	     77.24319172	     11.90644230	     15.34430884
      0.03571429	      1.46855347	     -4.73286344	    104.09737939	      0.18773596	      1.01347190	      0.37832027	     -5.27441578	      2.99065524	    -19.49853451	      1.74318909	      0.03042439	     18.44597833	     -2.21755191	      0.00000000	     -2.67366265	     -4.56423048	      9.03562209	      0.73375972	      0.01280652	     20.14407161	      6.31056631	      0.00000000	      0.07028941	      0.36133769	     -3.05002950	      0.13053447	      0.48057913	     -3.24065634	      0.11547848	      0.87855646	     -3.24065634	      0.08033377	      0.87855646	     -2.66877581	      0.06527075	      0.73683982	     -2.47814897	      0.04016337	      0.55971208	     -2.28752212	      0.50207024	      4.08752421	    -16.96334904	      0.00000000	      0.00000000	     19.15263105	      3.75994061	      4.17213813	     -1.31533125	    -25.75178165	     41.28393702	    104.02080790	     38.21033343	      2.95308780	     10.43955080	    -10.63938239	    -18.09164007	     28.18012972	    103.10057502	     76.31205685	     10.98646957	     15.63263393
      0.05357143	      1.69533413	     -4.66497087	    103.93838690	      0.18764011	      1.01338136	      0.37707686	     -5.33034952	      3.25695497	    -19.74495754	      1.62479600	      0.02835804	     18.50121487	     -1.90750431	      0.00000000	     -2.80172939	     -4.81629631	      9.94210758	      0.66637096	      0.01163037	     20.29821484	      5.39158330	      0.00000000	      0.07580021	      0.40049933	     -3.11907538	      0.14076857	      0.53266411	     -3.31401760	      0.12453217	      0.97377407	     -3.31401760	      0.08663206	      0.97377407	     -2.72919096	      0.07038808	      0.81669823	     -2.53424875	      0.04331224	      0.62037346	     -2.33930654	      0.54143333	      4.53052851	    -17.34736156	      0.00000000	      0.00000000	     19.22677643	      3.79202754	      5.14108881	     -1.00224933	    -26.16652098	     41.42440649	    105.13685232	     34.78042779	      2.34813617	     11.51564977	    -11.37473540	    -18.15523911	     27.99239044	    104.52253794	     75.37249080	      9.15997592	     17.21441689
